<?xml version="1.0" encoding="UTF-8" standalone="no"?>
<!DOCTYPE svg PUBLIC "-//W3C//DTD SVG 1.1//EN"
 "http://www.w3.org/Graphics/SVG/1.1/DTD/svg11.dtd">
<!-- Generated by graphviz version 2.44.1 (20200629.0846)
 -->
<!-- Title: g Pages: 1 -->
<svg width="1286pt" height="1157pt"
 viewBox="0.00 0.00 1286.00 1156.80" xmlns="http://www.w3.org/2000/svg" xmlns:xlink="http://www.w3.org/1999/xlink">
<g id="graph0" class="graph" transform="scale(1 1) rotate(0) translate(4 1152.8)">
<title>g</title>
<polygon fill="white" stroke="transparent" points="-4,4 -4,-1152.8 1282,-1152.8 1282,4 -4,4"/>
<g id="clust1" class="cluster">
<title>cluster_1225578732</title>
<polygon fill="#ececec" stroke="black" points="8,-978 8,-1140.8 276,-1140.8 276,-978 8,-978"/>
<text text-anchor="middle" x="49.82" y="-1124.2" font-family="Times New Roman,serif" font-size="14.00">Netzklassen</text>
</g>
<g id="clust2" class="cluster">
<title>cluster_1357712437</title>
<polygon fill="#ececec" stroke="black" points="284,-8 284,-1140.8 1270,-1140.8 1270,-8 284,-8"/>
<text text-anchor="middle" x="307.55" y="-1124.2" font-family="Times New Roman,serif" font-size="14.00">client</text>
</g>
<g id="clust3" class="cluster">
<title>cluster_2021122027</title>
<polygon fill="#ececec" stroke="black" points="15,-240 15,-926.4 269,-926.4 269,-240 15,-240"/>
<text text-anchor="middle" x="40.11" y="-909.8" font-family="Times New Roman,serif" font-size="14.00">Client</text>
</g>
<g id="clust4" class="cluster">
<title>cluster_300546502</title>
<polygon fill="#d8d8d8" stroke="black" points="24,-248 24,-458.8 260,-458.8 260,-248 24,-248"/>
<text text-anchor="middle" x="79.03" y="-442.2" font-family="Times New Roman,serif" font-size="14.00">MessageHandler</text>
</g>
<!-- Client1225578732 -->
<g id="node1" class="node">
<title>Client1225578732</title>
<polygon fill="#ffffff" stroke="transparent" points="268,-1108 16,-1108 16,-986 268,-986 268,-1108"/>
<text text-anchor="start" x="21" y="-1090.4" font-family="Times New Roman,serif" font-size="14.00">(C)Client</text>
<text text-anchor="start" x="20.53" y="-1066.4" font-family="Times New Roman,serif" font-size="14.00">&#45; &#160;&#160;messageHandler: MessageHandler [0..1]</text>
<text text-anchor="start" x="21" y="-1042.4" font-family="Times New Roman,serif" font-size="14.00">+ close()</text>
<text text-anchor="start" x="21" y="-1018.4" font-family="Times New Roman,serif" font-size="14.00">+ processMessage(pMessage: String)</text>
<text text-anchor="start" x="21" y="-994.4" font-family="Times New Roman,serif" font-size="14.00">+ send(pMessage: String)</text>
<polygon fill="black" stroke="black" points="16,-1083 16,-1083 268,-1083 268,-1083 16,-1083"/>
<polygon fill="black" stroke="black" points="16,-1059 16,-1059 268,-1059 268,-1059 16,-1059"/>
<polygon fill="none" stroke="black" points="16,-986 16,-1108 268,-1108 268,-986 16,-986"/>
</g>
<!-- ClientHead985441977 -->
<g id="node5" class="node">
<title>ClientHead985441977</title>
<polygon fill="#ffffff" stroke="transparent" points="832.5,-905.6 613.5,-905.6 613.5,-735.6 832.5,-735.6 832.5,-905.6"/>
<text text-anchor="start" x="619" y="-888" font-family="Times New Roman,serif" font-size="14.00">(C)ClientHead</text>
<text text-anchor="start" x="619" y="-864" font-family="Times New Roman,serif" font-size="14.00"># &#160;&#160;ergebnis: ClientErgebnis [0..1]</text>
<text text-anchor="start" x="619" y="-840" font-family="Times New Roman,serif" font-size="14.00"># &#160;&#160;game: ClientGame [0..1]</text>
<text text-anchor="start" x="619" y="-816" font-family="Times New Roman,serif" font-size="14.00"># &#160;&#160;gui: ClientGUI [0..1]</text>
<text text-anchor="start" x="619" y="-792" font-family="Times New Roman,serif" font-size="14.00"># &#160;&#160;lobby: ClientLobby [0..1]</text>
<text text-anchor="start" x="619" y="-768" font-family="Times New Roman,serif" font-size="14.00"># &#160;&#160;login: ClientLogin [0..1]</text>
<text text-anchor="start" x="618.87" y="-744" font-family="Times New Roman,serif" font-size="14.00">+ processMessage(pMessage: String)</text>
<polygon fill="black" stroke="black" points="614,-880.6 614,-880.6 833,-880.6 833,-880.6 614,-880.6"/>
<polygon fill="black" stroke="black" points="614,-760.6 614,-760.6 833,-760.6 833,-760.6 614,-760.6"/>
<polygon fill="none" stroke="black" points="613.5,-735.6 613.5,-905.6 832.5,-905.6 832.5,-735.6 613.5,-735.6"/>
</g>
<!-- Client1225578732&#45;&gt;ClientHead985441977 -->
<g id="edge1" class="edge">
<title>Client1225578732&#45;&gt;ClientHead985441977</title>
<path fill="none" stroke="black" d="M273,-981.45C277.43,-979.26 280,-978 280,-978 280,-978 482.31,-906.58 613.49,-860.26"/>
<polygon fill="none" stroke="black" points="271.32,-978.37 263.9,-985.93 274.42,-984.65 271.32,-978.37"/>
</g>
<!-- MessageHandler1824262957 -->
<g id="node8" class="node">
<title>MessageHandler1824262957</title>
<polygon fill="#ffffff" stroke="transparent" points="261,-893.6 23,-893.6 23,-747.6 261,-747.6 261,-893.6"/>
<text text-anchor="start" x="28" y="-876" font-family="Times New Roman,serif" font-size="14.00">(C)MessageHandler</text>
<text text-anchor="start" x="28" y="-852" font-family="Times New Roman,serif" font-size="14.00">&#45; &#160;&#160;active: boolean [1]</text>
<text text-anchor="start" x="27.92" y="-828" font-family="Times New Roman,serif" font-size="14.00">&#45; &#160;&#160;socketWrapper: SocketWrapper [0..1]</text>
<text text-anchor="start" x="28" y="-804" font-family="Times New Roman,serif" font-size="14.00">&#45; close()</text>
<text text-anchor="start" x="28" y="-780" font-family="Times New Roman,serif" font-size="14.00">+ run()</text>
<text text-anchor="start" x="28" y="-756" font-family="Times New Roman,serif" font-size="14.00">&#45; send(pMessage: String)</text>
<polygon fill="black" stroke="black" points="23,-868.6 23,-868.6 261,-868.6 261,-868.6 23,-868.6"/>
<polygon fill="black" stroke="black" points="23,-820.6 23,-820.6 261,-820.6 261,-820.6 23,-820.6"/>
<polygon fill="none" stroke="black" points="23,-747.6 23,-893.6 261,-893.6 261,-747.6 23,-747.6"/>
</g>
<!-- Client1225578732&#45;&gt;MessageHandler1824262957 -->
<g id="edge2" class="edge">
<title>Client1225578732&#45;&gt;MessageHandler1824262957</title>
<path fill="none" stroke="black" d="M142,-985.86C142,-960.77 142,-931.21 142,-904.13"/>
<polygon fill="black" stroke="black" points="145.5,-903.89 142,-893.89 138.5,-903.89 145.5,-903.89"/>
<text text-anchor="middle" x="188.26" y="-955.4" font-family="Times New Roman,serif" font-size="14.00">messageHandler</text>
<text text-anchor="middle" x="188.26" y="-938.6" font-family="Times New Roman,serif" font-size="14.00">[0..1]</text>
</g>
<!-- ClientErgebnis985441977 -->
<g id="node2" class="node">
<title>ClientErgebnis985441977</title>
<polygon fill="#ffffff" stroke="transparent" points="818,-1108 628,-1108 628,-986 818,-986 818,-1108"/>
<text text-anchor="start" x="633" y="-1090.4" font-family="Times New Roman,serif" font-size="14.00">(C)ClientErgebnis</text>
<text text-anchor="start" x="632.62" y="-1066.4" font-family="Times New Roman,serif" font-size="14.00">&#45; &#160;&#160;clientHead: ClientHead [0..1]</text>
<text text-anchor="start" x="633" y="-1042.4" font-family="Times New Roman,serif" font-size="14.00">+ show(daten: String)</text>
<text text-anchor="start" x="633" y="-1018.4" font-family="Times New Roman,serif" font-size="14.00">+ updateScoreList(data: String)</text>
<text text-anchor="start" x="633" y="-994.4" font-family="Times New Roman,serif" font-size="14.00">+ uploadRecord()</text>
<polygon fill="black" stroke="black" points="628,-1083 628,-1083 818,-1083 818,-1083 628,-1083"/>
<polygon fill="black" stroke="black" points="628,-1059 628,-1059 818,-1059 818,-1059 628,-1059"/>
<polygon fill="none" stroke="black" points="628,-986 628,-1108 818,-1108 818,-986 628,-986"/>
</g>
<!-- ClientErgebnis985441977&#45;&gt;ClientHead985441977 -->
<g id="edge3" class="edge">
<title>ClientErgebnis985441977&#45;&gt;ClientHead985441977</title>
<path fill="none" stroke="black" d="M691.58,-985.7C686.23,-975.43 682.36,-968 682.36,-968 682.36,-968 682.36,-934.4 682.36,-934.4 682.36,-934.4 685.17,-926.6 689.32,-915.09"/>
<polygon fill="black" stroke="black" points="692.63,-916.24 692.72,-905.64 686.04,-913.87 692.63,-916.24"/>
<text text-anchor="middle" x="712.32" y="-955.4" font-family="Times New Roman,serif" font-size="14.00">clientHead</text>
<text text-anchor="middle" x="712.32" y="-938.6" font-family="Times New Roman,serif" font-size="14.00">[0..1]</text>
</g>
<!-- ClientGUI985441977 -->
<g id="node3" class="node">
<title>ClientGUI985441977</title>
<polygon fill="#ffffff" stroke="transparent" points="555.5,-666 292.5,-666 292.5,-16 555.5,-16 555.5,-666"/>
<text text-anchor="start" x="298" y="-648.4" font-family="Times New Roman,serif" font-size="14.00">(C)ClientGUI</text>
<text text-anchor="start" x="298" y="-624.4" font-family="Times New Roman,serif" font-size="14.00"># &#160;&#160;btnRekordUpload: JButton [0..1]</text>
<text text-anchor="start" x="298" y="-600.4" font-family="Times New Roman,serif" font-size="14.00">&#45; &#160;&#160;clientHead: ClientHead [0..1]</text>
<text text-anchor="start" x="298" y="-576.4" font-family="Times New Roman,serif" font-size="14.00"># &#160;&#160;dTMHHSc: DefaultTableModel [0..1]</text>
<text text-anchor="start" x="298" y="-552.4" font-family="Times New Roman,serif" font-size="14.00"># &#160;&#160;dTMLobby: DefaultTableModel [0..1]</text>
<text text-anchor="start" x="298" y="-528.4" font-family="Times New Roman,serif" font-size="14.00"># &#160;&#160;dTMSc: DefaultTableModel [0..1]</text>
<text text-anchor="start" x="298" y="-504.4" font-family="Times New Roman,serif" font-size="14.00"># &#160;&#160;doc: StyledDocument [0..1]</text>
<text text-anchor="start" x="298" y="-480.4" font-family="Times New Roman,serif" font-size="14.00"># &#160;&#160;highscoreTable: JTable [0..1]</text>
<text text-anchor="start" x="298" y="-456.4" font-family="Times New Roman,serif" font-size="14.00"># &#160;&#160;lblAnschlaege: JLabel [0..1]</text>
<text text-anchor="start" x="298" y="-432.4" font-family="Times New Roman,serif" font-size="14.00"># &#160;&#160;lblReadyCounter: JLabel [0..1]</text>
<text text-anchor="start" x="298" y="-408.4" font-family="Times New Roman,serif" font-size="14.00"># &#160;&#160;lblZeit: JLabel [0..1]</text>
<text text-anchor="start" x="298" y="-384.4" font-family="Times New Roman,serif" font-size="14.00"># &#160;&#160;lobbyTable: JTable [0..1]</text>
<text text-anchor="start" x="298" y="-360.4" font-family="Times New Roman,serif" font-size="14.00">&#45; &#160;&#160;panelErgebnis: JPanel [0..1]</text>
<text text-anchor="start" x="298" y="-336.4" font-family="Times New Roman,serif" font-size="14.00">&#45; &#160;&#160;panelGame: JPanel [0..1]</text>
<text text-anchor="start" x="298" y="-312.4" font-family="Times New Roman,serif" font-size="14.00">&#45; &#160;&#160;panelLobby: JPanel [0..1]</text>
<text text-anchor="start" x="298" y="-288.4" font-family="Times New Roman,serif" font-size="14.00">&#45; &#160;&#160;panelLogin: JPanel [0..1]</text>
<text text-anchor="start" x="298" y="-264.4" font-family="Times New Roman,serif" font-size="14.00"># &#160;&#160;scoreTable: JTable [0..1]</text>
<text text-anchor="start" x="298" y="-240.4" font-family="Times New Roman,serif" font-size="14.00"># &#160;&#160;textFieldAnschlaege: JTextField [0..1]</text>
<text text-anchor="start" x="297.55" y="-216.4" font-family="Times New Roman,serif" font-size="14.00"># &#160;&#160;textFieldAnschlaegePM: JTextField [0..1]</text>
<text text-anchor="start" x="298" y="-192.4" font-family="Times New Roman,serif" font-size="14.00"># &#160;&#160;textFieldErgebnis: JTextField [0..1]</text>
<text text-anchor="start" x="298" y="-168.4" font-family="Times New Roman,serif" font-size="14.00"># &#160;&#160;textFieldFehler: JTextField [0..1]</text>
<text text-anchor="start" x="298" y="-144.4" font-family="Times New Roman,serif" font-size="14.00"># &#160;&#160;textFieldPassword: JPasswordField [0..1]</text>
<text text-anchor="start" x="298" y="-120.4" font-family="Times New Roman,serif" font-size="14.00"># &#160;&#160;textFieldRechnung: JTextField [0..1]</text>
<text text-anchor="start" x="298" y="-96.4" font-family="Times New Roman,serif" font-size="14.00"># &#160;&#160;txtpnText: JTextPane [0..1]</text>
<text text-anchor="start" x="298" y="-72.4" font-family="Times New Roman,serif" font-size="14.00">+ keyPressed(e: KeyEvent)</text>
<text text-anchor="start" x="298" y="-48.4" font-family="Times New Roman,serif" font-size="14.00">+ keyReleased(arg0: KeyEvent)</text>
<text text-anchor="start" x="298" y="-24.4" font-family="Times New Roman,serif" font-size="14.00">+ keyTyped(e: KeyEvent)</text>
<polygon fill="black" stroke="black" points="293,-641 293,-641 556,-641 556,-641 293,-641"/>
<polygon fill="black" stroke="black" points="293,-89 293,-89 556,-89 556,-89 293,-89"/>
<polygon fill="none" stroke="black" points="292.5,-16 292.5,-666 555.5,-666 555.5,-16 292.5,-16"/>
</g>
<!-- ClientGUI985441977&#45;&gt;ClientHead985441977 -->
<g id="edge4" class="edge">
<title>ClientGUI985441977&#45;&gt;ClientHead985441977</title>
<path fill="none" stroke="black" d="M555.53,-644.24C561.47,-657.89 565,-666 565,-666 565,-666 608.36,-717.6 608.36,-717.6 608.36,-717.6 613.1,-721.82 620.66,-728.54"/>
<polygon fill="black" stroke="black" points="618.53,-731.33 628.33,-735.37 623.19,-726.1 618.53,-731.33"/>
<text text-anchor="middle" x="638.32" y="-705" font-family="Times New Roman,serif" font-size="14.00">clientHead</text>
<text text-anchor="middle" x="638.32" y="-688.2" font-family="Times New Roman,serif" font-size="14.00">[0..1]</text>
</g>
<!-- ClientGame985441977 -->
<g id="node4" class="node">
<title>ClientGame985441977</title>
<polygon fill="#ffffff" stroke="transparent" points="766,-558 574,-558 574,-124 766,-124 766,-558"/>
<text text-anchor="start" x="579" y="-540.4" font-family="Times New Roman,serif" font-size="14.00">(C)ClientGame</text>
<text text-anchor="start" x="579" y="-516.4" font-family="Times New Roman,serif" font-size="14.00"># &#160;&#160;apm: double [1]</text>
<text text-anchor="start" x="579" y="-492.4" font-family="Times New Roman,serif" font-size="14.00">&#45; &#160;&#160;clientHead: ClientHead [0..1]</text>
<text text-anchor="start" x="579" y="-468.4" font-family="Times New Roman,serif" font-size="14.00"># &#160;&#160;counter: int [1]</text>
<text text-anchor="start" x="579" y="-444.4" font-family="Times New Roman,serif" font-size="14.00">&#45; &#160;&#160;fehler: List&lt;Integer&gt; [0..1]</text>
<text text-anchor="start" x="578.83" y="-420.4" font-family="Times New Roman,serif" font-size="14.00">&#45; &#160;&#160;gameCanStart: Boolean [0..1]</text>
<text text-anchor="start" x="579" y="-396.4" font-family="Times New Roman,serif" font-size="14.00">&#45; &#160;&#160;gameRunning: Boolean [0..1]</text>
<text text-anchor="start" x="579" y="-372.4" font-family="Times New Roman,serif" font-size="14.00">&#45; &#160;&#160;taskZeit: TimerTask [0..1]</text>
<text text-anchor="start" x="579" y="-348.4" font-family="Times New Roman,serif" font-size="14.00">&#45; &#160;&#160;text: String [0..1]</text>
<text text-anchor="start" x="579" y="-324.4" font-family="Times New Roman,serif" font-size="14.00"># &#160;&#160;textAsCharArr: char[] [0..*]</text>
<text text-anchor="start" x="579" y="-300.4" font-family="Times New Roman,serif" font-size="14.00">&#45; &#160;&#160;threadAPM: Thread [0..1]</text>
<text text-anchor="start" x="579" y="-276.4" font-family="Times New Roman,serif" font-size="14.00"># &#160;&#160;timeLeft: double [1]</text>
<text text-anchor="start" x="579" y="-252.4" font-family="Times New Roman,serif" font-size="14.00">&#45; &#160;&#160;timerZeit: Timer [0..1]</text>
<text text-anchor="start" x="579" y="-228.4" font-family="Times New Roman,serif" font-size="14.00">&#45; countFehler(): int</text>
<text text-anchor="start" x="579" y="-204.4" font-family="Times New Roman,serif" font-size="14.00">+ removeLastChar()</text>
<text text-anchor="start" x="579" y="-180.4" font-family="Times New Roman,serif" font-size="14.00">+ startGame()</text>
<text text-anchor="start" x="579" y="-156.4" font-family="Times New Roman,serif" font-size="14.00">+ stopGame()</text>
<text text-anchor="start" x="579" y="-132.4" font-family="Times New Roman,serif" font-size="14.00">+ typeChar(c: char)</text>
<polygon fill="black" stroke="black" points="574,-533 574,-533 766,-533 766,-533 574,-533"/>
<polygon fill="black" stroke="black" points="574,-245 574,-245 766,-245 766,-245 574,-245"/>
<polygon fill="none" stroke="black" points="574,-124 574,-558 766,-558 766,-124 574,-124"/>
</g>
<!-- ClientGame985441977&#45;&gt;ClientHead985441977 -->
<g id="edge5" class="edge">
<title>ClientGame985441977&#45;&gt;ClientHead985441977</title>
<path fill="none" stroke="black" d="M693.99,-558.23C700.51,-616.95 707.23,-677.51 712.56,-725.54"/>
<polygon fill="black" stroke="black" points="709.1,-726.04 713.68,-735.59 716.05,-725.26 709.1,-726.04"/>
<text text-anchor="middle" x="741.32" y="-705" font-family="Times New Roman,serif" font-size="14.00">clientHead</text>
<text text-anchor="middle" x="741.32" y="-688.2" font-family="Times New Roman,serif" font-size="14.00">[0..1]</text>
</g>
<!-- ClientHead985441977&#45;&gt;ClientErgebnis985441977 -->
<g id="edge6" class="edge">
<title>ClientHead985441977&#45;&gt;ClientErgebnis985441977</title>
<path fill="none" stroke="black" d="M737.9,-905.64C740.82,-922.11 743,-934.4 743,-934.4 743,-934.4 743,-968 743,-968 743,-968 742.22,-971.05 740.96,-975.94"/>
<polygon fill="black" stroke="black" points="737.56,-975.14 738.46,-985.7 744.34,-976.88 737.56,-975.14"/>
<text text-anchor="middle" x="766.71" y="-955.4" font-family="Times New Roman,serif" font-size="14.00">ergebnis</text>
<text text-anchor="middle" x="766.71" y="-938.6" font-family="Times New Roman,serif" font-size="14.00">[0..1]</text>
</g>
<!-- ClientHead985441977&#45;&gt;ClientGUI985441977 -->
<g id="edge7" class="edge">
<title>ClientHead985441977&#45;&gt;ClientGUI985441977</title>
<path fill="none" stroke="black" d="M613.48,-756.6C577.09,-735.67 545.68,-717.6 545.68,-717.6 545.68,-717.6 540.46,-701.51 532.2,-675.98"/>
<polygon fill="black" stroke="black" points="535.43,-674.6 529.02,-666.16 528.77,-676.75 535.43,-674.6"/>
<text text-anchor="middle" x="560.16" y="-705" font-family="Times New Roman,serif" font-size="14.00">gui</text>
<text text-anchor="middle" x="560.16" y="-688.2" font-family="Times New Roman,serif" font-size="14.00">[0..1]</text>
</g>
<!-- ClientHead985441977&#45;&gt;ClientGame985441977 -->
<g id="edge8" class="edge">
<title>ClientHead985441977&#45;&gt;ClientGame985441977</title>
<path fill="none" stroke="black" d="M682.27,-735.37C677.16,-724.8 673.68,-717.6 673.68,-717.6 673.68,-717.6 672.99,-647.74 672.22,-568.28"/>
<polygon fill="black" stroke="black" points="675.71,-568 672.12,-558.04 668.71,-568.07 675.71,-568"/>
<text text-anchor="middle" x="688.16" y="-705" font-family="Times New Roman,serif" font-size="14.00">game</text>
<text text-anchor="middle" x="688.16" y="-688.2" font-family="Times New Roman,serif" font-size="14.00">[0..1]</text>
</g>
<!-- ClientLobby985441977 -->
<g id="node6" class="node">
<title>ClientLobby985441977</title>
<polygon fill="#ffffff" stroke="transparent" points="974,-390 784,-390 784,-292 974,-292 974,-390"/>
<text text-anchor="start" x="789" y="-372.4" font-family="Times New Roman,serif" font-size="14.00">(C)ClientLobby</text>
<text text-anchor="start" x="788.62" y="-348.4" font-family="Times New Roman,serif" font-size="14.00">&#45; &#160;&#160;clientHead: ClientHead [0..1]</text>
<text text-anchor="start" x="789" y="-324.4" font-family="Times New Roman,serif" font-size="14.00">&#45; &#160;&#160;readyStatus: Boolean [0..1]</text>
<text text-anchor="start" x="789" y="-300.4" font-family="Times New Roman,serif" font-size="14.00">+ refreshCounter(data: String)</text>
<polygon fill="black" stroke="black" points="784,-365 784,-365 974,-365 974,-365 784,-365"/>
<polygon fill="black" stroke="black" points="784,-317 784,-317 974,-317 974,-317 784,-317"/>
<polygon fill="none" stroke="black" points="784,-292 784,-390 974,-390 974,-292 784,-292"/>
</g>
<!-- ClientHead985441977&#45;&gt;ClientLobby985441977 -->
<g id="edge9" class="edge">
<title>ClientHead985441977&#45;&gt;ClientLobby985441977</title>
<path fill="none" stroke="black" d="M766.77,-735.37C772.26,-724.8 776,-717.6 776,-717.6 776,-717.6 834.12,-505.67 863.04,-400.2"/>
<polygon fill="black" stroke="black" points="866.48,-400.9 865.75,-390.33 859.73,-399.05 866.48,-400.9"/>
<text text-anchor="middle" x="799.95" y="-705" font-family="Times New Roman,serif" font-size="14.00">lobby</text>
<text text-anchor="middle" x="799.95" y="-688.2" font-family="Times New Roman,serif" font-size="14.00">[0..1]</text>
</g>
<!-- ClientLogin985441977 -->
<g id="node7" class="node">
<title>ClientLogin985441977</title>
<polygon fill="#ffffff" stroke="transparent" points="1262,-414 992,-414 992,-268 1262,-268 1262,-414"/>
<text text-anchor="start" x="997" y="-396.4" font-family="Times New Roman,serif" font-size="14.00">(C)ClientLogin</text>
<text text-anchor="start" x="997" y="-372.4" font-family="Times New Roman,serif" font-size="14.00">&#45; &#160;&#160;clientHead: ClientHead [0..1]</text>
<text text-anchor="start" x="996.51" y="-348.4" font-family="Times New Roman,serif" font-size="14.00">+ accCreation(name: String, password: String)</text>
<text text-anchor="start" x="997" y="-324.4" font-family="Times New Roman,serif" font-size="14.00">+ accLogin(name: String, password: String)</text>
<text text-anchor="start" x="997" y="-300.4" font-family="Times New Roman,serif" font-size="14.00">+ accLoginAsGuest()</text>
<text text-anchor="start" x="997" y="-276.4" font-family="Times New Roman,serif" font-size="14.00">+ updateHighscoreList(data: String)</text>
<polygon fill="black" stroke="black" points="992,-389 992,-389 1262,-389 1262,-389 992,-389"/>
<polygon fill="black" stroke="black" points="992,-365 992,-365 1262,-365 1262,-365 992,-365"/>
<polygon fill="none" stroke="black" points="992,-268 992,-414 1262,-414 1262,-268 992,-268"/>
</g>
<!-- ClientHead985441977&#45;&gt;ClientLogin985441977 -->
<g id="edge10" class="edge">
<title>ClientHead985441977&#45;&gt;ClientLogin985441977</title>
<path fill="none" stroke="black" d="M832.51,-754.9C903.57,-712.93 983,-666 983,-666 983,-666 1048.02,-519.7 1090.68,-423.72"/>
<polygon fill="black" stroke="black" points="1094,-424.87 1094.86,-414.31 1087.6,-422.03 1094,-424.87"/>
<text text-anchor="middle" x="965.16" y="-705" font-family="Times New Roman,serif" font-size="14.00">login</text>
<text text-anchor="middle" x="965.16" y="-688.2" font-family="Times New Roman,serif" font-size="14.00">[0..1]</text>
</g>
<!-- ClientLobby985441977&#45;&gt;ClientHead985441977 -->
<g id="edge11" class="edge">
<title>ClientLobby985441977&#45;&gt;ClientHead985441977</title>
<path fill="none" stroke="black" d="M871.41,-390.33C855.47,-491.78 820,-717.6 820,-717.6 820,-717.6 816.31,-721.48 810.37,-727.73"/>
<polygon fill="black" stroke="black" points="807.46,-725.71 803.1,-735.37 812.53,-730.53 807.46,-725.71"/>
<text text-anchor="middle" x="855.32" y="-705" font-family="Times New Roman,serif" font-size="14.00">clientHead</text>
<text text-anchor="middle" x="855.32" y="-688.2" font-family="Times New Roman,serif" font-size="14.00">[0..1]</text>
</g>
<!-- ClientLogin985441977&#45;&gt;ClientHead985441977 -->
<g id="edge12" class="edge">
<title>ClientLogin985441977&#45;&gt;ClientHead985441977</title>
<path fill="none" stroke="black" d="M1099.43,-414.42C1057.87,-523.56 984,-717.6 984,-717.6 984,-717.6 911.01,-746.13 842.22,-773.01"/>
<polygon fill="black" stroke="black" points="840.59,-769.89 832.55,-776.79 843.14,-776.41 840.59,-769.89"/>
<text text-anchor="middle" x="1026.32" y="-705" font-family="Times New Roman,serif" font-size="14.00">clientHead</text>
<text text-anchor="middle" x="1026.32" y="-688.2" font-family="Times New Roman,serif" font-size="14.00">[0..1]</text>
</g>
<!-- SocketWrapper889561668 -->
<g id="node9" class="node">
<title>SocketWrapper889561668</title>
<polygon fill="#ffffff" stroke="transparent" points="251.5,-426 32.5,-426 32.5,-256 251.5,-256 251.5,-426"/>
<text text-anchor="start" x="38" y="-408.4" font-family="Times New Roman,serif" font-size="14.00">(C)SocketWrapper</text>
<text text-anchor="start" x="37.75" y="-384.4" font-family="Times New Roman,serif" font-size="14.00">&#45; &#160;&#160;fromServer: BufferedReader [0..1]</text>
<text text-anchor="start" x="38" y="-360.4" font-family="Times New Roman,serif" font-size="14.00">&#45; &#160;&#160;socket: Socket [0..1]</text>
<text text-anchor="start" x="38" y="-336.4" font-family="Times New Roman,serif" font-size="14.00">&#45; &#160;&#160;toServer: PrintWriter [0..1]</text>
<text text-anchor="start" x="38" y="-312.4" font-family="Times New Roman,serif" font-size="14.00">+ close()</text>
<text text-anchor="start" x="38" y="-288.4" font-family="Times New Roman,serif" font-size="14.00">+ receive(): String</text>
<text text-anchor="start" x="38" y="-264.4" font-family="Times New Roman,serif" font-size="14.00">+ send(pMessage: String)</text>
<polygon fill="black" stroke="black" points="33,-401 33,-401 252,-401 252,-401 33,-401"/>
<polygon fill="black" stroke="black" points="33,-329 33,-329 252,-329 252,-329 33,-329"/>
<polygon fill="none" stroke="black" points="32.5,-256 32.5,-426 251.5,-426 251.5,-256 32.5,-256"/>
</g>
<!-- MessageHandler1824262957&#45;&gt;SocketWrapper889561668 -->
<g id="edge13" class="edge">
<title>MessageHandler1824262957&#45;&gt;SocketWrapper889561668</title>
<path fill="none" stroke="black" d="M142,-747.58C142,-664.57 142,-527.85 142,-436.39"/>
<polygon fill="black" stroke="black" points="145.5,-436.3 142,-426.3 138.5,-436.3 145.5,-436.3"/>
<text text-anchor="middle" x="184.36" y="-705" font-family="Times New Roman,serif" font-size="14.00">socketWrapper</text>
<text text-anchor="middle" x="184.36" y="-688.2" font-family="Times New Roman,serif" font-size="14.00">[0..1]</text>
</g>
</g>
</svg>
