<?xml version="1.0" encoding="UTF-8" standalone="no"?>
<!DOCTYPE svg PUBLIC "-//W3C//DTD SVG 1.1//EN"
 "http://www.w3.org/Graphics/SVG/1.1/DTD/svg11.dtd">
<!-- Generated by graphviz version 2.44.1 (20200629.0846)
 -->
<!-- Title: g Pages: 1 -->
<svg width="2862pt" height="1120pt"
 viewBox="0.00 0.00 2862.00 1119.60" xmlns="http://www.w3.org/2000/svg" xmlns:xlink="http://www.w3.org/1999/xlink">
<g id="graph0" class="graph" transform="scale(1 1) rotate(0) translate(4 1115.6)">
<title>g</title>
<polygon fill="white" stroke="transparent" points="-4,4 -4,-1115.6 2858,-1115.6 2858,4 -4,4"/>
<g id="clust1" class="cluster">
<title>cluster_1225578732</title>
<polygon fill="#ececec" stroke="black" points="686,-724.8 686,-1103.6 1206,-1103.6 1206,-724.8 686,-724.8"/>
<text text-anchor="middle" x="727.82" y="-1087" font-family="Times New Roman,serif" font-size="14.00">Netzklassen</text>
</g>
<g id="clust2" class="cluster">
<title>cluster_1821959325</title>
<polygon fill="#ececec" stroke="black" points="8,-60 8,-625.2 528,-625.2 528,-60 8,-60"/>
<text text-anchor="middle" x="34.27" y="-608.6" font-family="Times New Roman,serif" font-size="14.00">Server</text>
</g>
<g id="clust3" class="cluster">
<title>cluster_1639132089</title>
<polygon fill="#d8d8d8" stroke="black" points="35,-68 35,-278.8 269,-278.8 269,-68 35,-68"/>
<text text-anchor="middle" x="107.14" y="-262.2" font-family="Times New Roman,serif" font-size="14.00">ClientMessageHandler</text>
</g>
<g id="clust4" class="cluster">
<title>cluster_2036697502</title>
<polygon fill="#ececec" stroke="black" points="2580,-8 2580,-338.8 2846,-338.8 2846,-8 2580,-8"/>
<text text-anchor="middle" x="2626.1" y="-322.2" font-family="Times New Roman,serif" font-size="14.00">Listenklassen</text>
</g>
<g id="clust5" class="cluster">
<title>cluster_905826493</title>
<polygon fill="#ececec" stroke="black" points="536,-56 536,-673.2 2572,-673.2 2572,-56 536,-56"/>
<text text-anchor="middle" x="561.1" y="-656.6" font-family="Times New Roman,serif" font-size="14.00">server</text>
</g>
<!-- Server1225578732 -->
<g id="node1" class="node">
<title>Server1225578732</title>
<polygon fill="#ffffff" stroke="transparent" points="1197.5,-1070.8 694.5,-1070.8 694.5,-732.8 1197.5,-732.8 1197.5,-1070.8"/>
<text text-anchor="start" x="700" y="-1053.2" font-family="Times New Roman,serif" font-size="14.00">(C)Server</text>
<text text-anchor="start" x="700" y="-1029.2" font-family="Times New Roman,serif" font-size="14.00">&#45; &#160;&#160;connectionHandler: NewConnectionHandler [0..1]</text>
<text text-anchor="start" x="700" y="-1005.2" font-family="Times New Roman,serif" font-size="14.00">&#45; &#160;&#160;messageHandlers: List&lt;ClientMessageHandler&gt; [0..1]</text>
<text text-anchor="start" x="700" y="-981.2" font-family="Times New Roman,serif" font-size="14.00">&#45; addNewClientMessageHandler(pClientSocket: Socket)</text>
<text text-anchor="start" x="700" y="-957.2" font-family="Times New Roman,serif" font-size="14.00">+ close()</text>
<text text-anchor="start" x="700" y="-933.2" font-family="Times New Roman,serif" font-size="14.00">+ closeConnection(pClientIP: String, pClientPort: int)</text>
<text text-anchor="start" x="700" y="-909.2" font-family="Times New Roman,serif" font-size="14.00">&#45; findClientMessageHandler(pClientIP: String, pClientPort: int): ClientMessageHandler</text>
<text text-anchor="start" x="700" y="-885.2" font-family="Times New Roman,serif" font-size="14.00">+ isConnectedTo(pClientIP: String, pClientPort: int): boolean</text>
<text text-anchor="start" x="700" y="-861.2" font-family="Times New Roman,serif" font-size="14.00">+ processClosingConnection(pClientIP: String, pClientPort: int)</text>
<text text-anchor="start" x="700" y="-837.2" font-family="Times New Roman,serif" font-size="14.00">+ processMessage(pClientIP: String, pClientPort: int, pMessage: String)</text>
<text text-anchor="start" x="700" y="-813.2" font-family="Times New Roman,serif" font-size="14.00">+ processNewConnection(pClientIP: String, pClientPort: int)</text>
<text text-anchor="start" x="700" y="-789.2" font-family="Times New Roman,serif" font-size="14.00">&#45; removeClientMessageHandler(pClientMessageHandler: ClientMessageHandler)</text>
<text text-anchor="start" x="700" y="-765.2" font-family="Times New Roman,serif" font-size="14.00">+ send(pClientIP: String, pClientPort: int, pMessage: String)</text>
<text text-anchor="start" x="700" y="-741.2" font-family="Times New Roman,serif" font-size="14.00">+ sendToAll(pMessage: String)</text>
<polygon fill="black" stroke="black" points="695,-1045.8 695,-1045.8 1198,-1045.8 1198,-1045.8 695,-1045.8"/>
<polygon fill="black" stroke="black" points="695,-997.8 695,-997.8 1198,-997.8 1198,-997.8 695,-997.8"/>
<polygon fill="none" stroke="black" points="694.5,-732.8 694.5,-1070.8 1197.5,-1070.8 1197.5,-732.8 694.5,-732.8"/>
</g>
<!-- ClientMessageHandler2018818395 -->
<g id="node2" class="node">
<title>ClientMessageHandler2018818395</title>
<polygon fill="#ffffff" stroke="transparent" points="288,-592.4 16,-592.4 16,-446.4 288,-446.4 288,-592.4"/>
<text text-anchor="start" x="21" y="-574.8" font-family="Times New Roman,serif" font-size="14.00">(C)ClientMessageHandler</text>
<text text-anchor="start" x="21" y="-550.8" font-family="Times New Roman,serif" font-size="14.00">&#45; &#160;&#160;active: boolean [1]</text>
<text text-anchor="start" x="20.8" y="-526.8" font-family="Times New Roman,serif" font-size="14.00">&#45; &#160;&#160;socketWrapper: ClientSocketWrapper [0..1]</text>
<text text-anchor="start" x="21" y="-502.8" font-family="Times New Roman,serif" font-size="14.00">+ close()</text>
<text text-anchor="start" x="21" y="-478.8" font-family="Times New Roman,serif" font-size="14.00">+ run()</text>
<text text-anchor="start" x="21" y="-454.8" font-family="Times New Roman,serif" font-size="14.00">+ send(pMessage: String)</text>
<polygon fill="black" stroke="black" points="16,-567.4 16,-567.4 288,-567.4 288,-567.4 16,-567.4"/>
<polygon fill="black" stroke="black" points="16,-519.4 16,-519.4 288,-519.4 288,-519.4 16,-519.4"/>
<polygon fill="none" stroke="black" points="16,-446.4 16,-592.4 288,-592.4 288,-446.4 16,-446.4"/>
</g>
<!-- Server1225578732&#45;&gt;ClientMessageHandler2018818395 -->
<g id="edge2" class="edge">
<title>Server1225578732&#45;&gt;ClientMessageHandler2018818395</title>
<path fill="none" stroke="black" d="M694.15,-812.48C511.72,-748.5 297,-673.2 297,-673.2 297,-673.2 262.86,-637.22 227.71,-600.18"/>
<polygon fill="black" stroke="black" points="230.1,-597.62 220.68,-592.77 225.02,-602.44 230.1,-597.62"/>
<text text-anchor="middle" x="453.98" y="-702.2" font-family="Times New Roman,serif" font-size="14.00">messageHandlers</text>
<text text-anchor="middle" x="453.98" y="-685.4" font-family="Times New Roman,serif" font-size="14.00">[0..1]</text>
</g>
<!-- NewConnectionHandler2018818395 -->
<g id="node3" class="node">
<title>NewConnectionHandler2018818395</title>
<polygon fill="#ffffff" stroke="transparent" points="519.5,-580.4 306.5,-580.4 306.5,-458.4 519.5,-458.4 519.5,-580.4"/>
<text text-anchor="start" x="312" y="-562.8" font-family="Times New Roman,serif" font-size="14.00">(C)NewConnectionHandler</text>
<text text-anchor="start" x="312" y="-538.8" font-family="Times New Roman,serif" font-size="14.00">&#45; &#160;&#160;active: boolean [1]</text>
<text text-anchor="start" x="311.85" y="-514.8" font-family="Times New Roman,serif" font-size="14.00">&#45; &#160;&#160;serverSocket: ServerSocket [0..1]</text>
<text text-anchor="start" x="312" y="-490.8" font-family="Times New Roman,serif" font-size="14.00">+ close()</text>
<text text-anchor="start" x="312" y="-466.8" font-family="Times New Roman,serif" font-size="14.00">+ run()</text>
<polygon fill="black" stroke="black" points="307,-555.4 307,-555.4 520,-555.4 520,-555.4 307,-555.4"/>
<polygon fill="black" stroke="black" points="307,-507.4 307,-507.4 520,-507.4 520,-507.4 307,-507.4"/>
<polygon fill="none" stroke="black" points="306.5,-458.4 306.5,-580.4 519.5,-580.4 519.5,-458.4 306.5,-458.4"/>
</g>
<!-- Server1225578732&#45;&gt;NewConnectionHandler2018818395 -->
<g id="edge4" class="edge">
<title>Server1225578732&#45;&gt;NewConnectionHandler2018818395</title>
<path fill="none" stroke="black" d="M694.44,-762.5C607.74,-714.84 532,-673.2 532,-673.2 532,-673.2 497.98,-629.52 466.32,-588.87"/>
<polygon fill="black" stroke="black" points="468.94,-586.53 460.03,-580.79 463.42,-590.83 468.94,-586.53"/>
<text text-anchor="middle" x="654.26" y="-702.2" font-family="Times New Roman,serif" font-size="14.00">connectionHandler</text>
<text text-anchor="middle" x="654.26" y="-685.4" font-family="Times New Roman,serif" font-size="14.00">[0..1]</text>
</g>
<!-- List2036697502 -->
<g id="node5" class="node">
<title>List2036697502</title>
<polygon fill="#ffffff" stroke="transparent" points="2837.5,-306 2588.5,-306 2588.5,-16 2837.5,-16 2837.5,-306"/>
<text text-anchor="start" x="2594" y="-288.4" font-family="Times New Roman,serif" font-size="14.00">(C)List&lt;ContentType&gt;</text>
<text text-anchor="start" x="2594" y="-264.4" font-family="Times New Roman,serif" font-size="14.00"># &#160;&#160;current: ListNode [0..1]</text>
<text text-anchor="start" x="2594" y="-240.4" font-family="Times New Roman,serif" font-size="14.00"># &#160;&#160;first: ListNode [0..1]</text>
<text text-anchor="start" x="2594" y="-216.4" font-family="Times New Roman,serif" font-size="14.00"># &#160;&#160;last: ListNode [0..1]</text>
<text text-anchor="start" x="2594" y="-192.4" font-family="Times New Roman,serif" font-size="14.00">+ append(pContent: ContentType)</text>
<text text-anchor="start" x="2594" y="-168.4" font-family="Times New Roman,serif" font-size="14.00">+ concat(pList: List&lt;ContentType&gt;)</text>
<text text-anchor="start" x="2593.56" y="-144.4" font-family="Times New Roman,serif" font-size="14.00">&#45; getPrevious(pNode: ListNode): ListNode</text>
<text text-anchor="start" x="2594" y="-120.4" font-family="Times New Roman,serif" font-size="14.00">+ insert(pContent: ContentType)</text>
<text text-anchor="start" x="2594" y="-96.4" font-family="Times New Roman,serif" font-size="14.00">+ next()</text>
<text text-anchor="start" x="2594" y="-72.4" font-family="Times New Roman,serif" font-size="14.00">+ remove()</text>
<text text-anchor="start" x="2594" y="-48.4" font-family="Times New Roman,serif" font-size="14.00">+ toFirst()</text>
<text text-anchor="start" x="2594" y="-24.4" font-family="Times New Roman,serif" font-size="14.00">+ toLast()</text>
<polygon fill="black" stroke="black" points="2589,-281 2589,-281 2838,-281 2838,-281 2589,-281"/>
<polygon fill="black" stroke="black" points="2589,-209 2589,-209 2838,-209 2838,-209 2589,-209"/>
<polygon fill="none" stroke="black" points="2588.5,-16 2588.5,-306 2837.5,-306 2837.5,-16 2588.5,-16"/>
</g>
<!-- Server1225578732&#45;&gt;List2036697502 -->
<g id="edge3" class="edge">
<title>Server1225578732&#45;&gt;List2036697502</title>
<path fill="none" stroke="black" d="M1197.56,-865.67C1654.94,-801.81 2576,-673.2 2576,-673.2 2576,-673.2 2631.41,-466.46 2671.75,-315.93"/>
<polygon fill="black" stroke="black" points="2675.17,-316.66 2674.38,-306.1 2668.41,-314.85 2675.17,-316.66"/>
<text text-anchor="middle" x="2697.98" y="-523.6" font-family="Times New Roman,serif" font-size="14.00">messageHandlers</text>
<text text-anchor="middle" x="2697.98" y="-506.8" font-family="Times New Roman,serif" font-size="14.00">[0..1]</text>
</g>
<!-- ServerHead533556033 -->
<g id="node8" class="node">
<title>ServerHead533556033</title>
<polygon fill="#ffffff" stroke="transparent" points="1866.5,-640.4 1451.5,-640.4 1451.5,-398.4 1866.5,-398.4 1866.5,-640.4"/>
<text text-anchor="start" x="1457" y="-622.8" font-family="Times New Roman,serif" font-size="14.00">(C)ServerHead</text>
<text text-anchor="start" x="1457" y="-598.8" font-family="Times New Roman,serif" font-size="14.00"># &#160;&#160;connector: SQLiteConnector [0..1]</text>
<text text-anchor="start" x="1457" y="-574.8" font-family="Times New Roman,serif" font-size="14.00"># &#160;&#160;ergebnis: ServerErgebnis [0..1]</text>
<text text-anchor="start" x="1457" y="-550.8" font-family="Times New Roman,serif" font-size="14.00"># &#160;&#160;lobby: ServerLobby [0..1]</text>
<text text-anchor="start" x="1457" y="-526.8" font-family="Times New Roman,serif" font-size="14.00"># &#160;&#160;login: ServerLogin [0..1]</text>
<text text-anchor="start" x="1457" y="-502.8" font-family="Times New Roman,serif" font-size="14.00"># &#160;&#160;spieler: List&lt;Spieler&gt; [0..1]</text>
<text text-anchor="start" x="1457" y="-478.8" font-family="Times New Roman,serif" font-size="14.00">+ processClosingConnection(pClientIP: String, pClientPort: int)</text>
<text text-anchor="start" x="1456.86" y="-454.8" font-family="Times New Roman,serif" font-size="14.00">+ processMessage(pClientIP: String, pClientPort: int, pMessage: String)</text>
<text text-anchor="start" x="1457" y="-430.8" font-family="Times New Roman,serif" font-size="14.00">+ processNewConnection(pClientIP: String, pClientPort: int)</text>
<text text-anchor="start" x="1457" y="-406.8" font-family="Times New Roman,serif" font-size="14.00">+ spielerSuchen(pClientIP: String, pClientPort: int): Spieler</text>
<polygon fill="black" stroke="black" points="1452,-615.4 1452,-615.4 1867,-615.4 1867,-615.4 1452,-615.4"/>
<polygon fill="black" stroke="black" points="1452,-495.4 1452,-495.4 1867,-495.4 1867,-495.4 1452,-495.4"/>
<polygon fill="none" stroke="black" points="1451.5,-398.4 1451.5,-640.4 1866.5,-640.4 1866.5,-398.4 1451.5,-398.4"/>
</g>
<!-- Server1225578732&#45;&gt;ServerHead533556033 -->
<g id="edge5" class="edge">
<title>Server1225578732&#45;&gt;ServerHead533556033</title>
<path fill="none" stroke="black" d="M1206.9,-761.61C1287.36,-718.68 1374.84,-672 1451.23,-631.25"/>
<polygon fill="none" stroke="black" points="1204.8,-758.76 1197.63,-766.55 1208.1,-764.93 1204.8,-758.76"/>
</g>
<!-- ClientSocketWrapper1530790473 -->
<g id="node4" class="node">
<title>ClientSocketWrapper1530790473</title>
<polygon fill="#ffffff" stroke="transparent" points="260.5,-246 43.5,-246 43.5,-76 260.5,-76 260.5,-246"/>
<text text-anchor="start" x="49" y="-228.4" font-family="Times New Roman,serif" font-size="14.00">(C)ClientSocketWrapper</text>
<text text-anchor="start" x="49" y="-204.4" font-family="Times New Roman,serif" font-size="14.00">&#45; &#160;&#160;clientSocket: Socket [0..1]</text>
<text text-anchor="start" x="48.9" y="-180.4" font-family="Times New Roman,serif" font-size="14.00">&#45; &#160;&#160;fromClient: BufferedReader [0..1]</text>
<text text-anchor="start" x="49" y="-156.4" font-family="Times New Roman,serif" font-size="14.00">&#45; &#160;&#160;toClient: PrintWriter [0..1]</text>
<text text-anchor="start" x="49" y="-132.4" font-family="Times New Roman,serif" font-size="14.00">+ close()</text>
<text text-anchor="start" x="49" y="-108.4" font-family="Times New Roman,serif" font-size="14.00">+ receive(): String</text>
<text text-anchor="start" x="49" y="-84.4" font-family="Times New Roman,serif" font-size="14.00">+ send(pMessage: String)</text>
<polygon fill="black" stroke="black" points="44,-221 44,-221 261,-221 261,-221 44,-221"/>
<polygon fill="black" stroke="black" points="44,-149 44,-149 261,-149 261,-149 44,-149"/>
<polygon fill="none" stroke="black" points="43.5,-76 43.5,-246 260.5,-246 260.5,-76 43.5,-76"/>
</g>
<!-- ClientMessageHandler2018818395&#45;&gt;ClientSocketWrapper1530790473 -->
<g id="edge1" class="edge">
<title>ClientMessageHandler2018818395&#45;&gt;ClientSocketWrapper1530790473</title>
<path fill="none" stroke="black" d="M152,-446.28C152,-391.57 152,-315.9 152,-256.39"/>
<polygon fill="black" stroke="black" points="155.5,-256.23 152,-246.23 148.5,-256.23 155.5,-256.23"/>
<text text-anchor="middle" x="194.36" y="-367.8" font-family="Times New Roman,serif" font-size="14.00">socketWrapper</text>
<text text-anchor="middle" x="194.36" y="-351" font-family="Times New Roman,serif" font-size="14.00">[0..1]</text>
</g>
<!-- SQLiteConnector533556033 -->
<g id="node6" class="node">
<title>SQLiteConnector533556033</title>
<polygon fill="#ffffff" stroke="transparent" points="1414,-246 1018,-246 1018,-76 1414,-76 1414,-246"/>
<text text-anchor="start" x="1023" y="-228.4" font-family="Times New Roman,serif" font-size="14.00">(C)SQLiteConnector</text>
<text text-anchor="start" x="1023" y="-204.4" font-family="Times New Roman,serif" font-size="14.00"># &#160;&#160;con: DatabaseConnector [0..1]</text>
<text text-anchor="start" x="1023" y="-180.4" font-family="Times New Roman,serif" font-size="14.00">+ checkIfAccountnameExists(username: String): Boolean</text>
<text text-anchor="start" x="1023" y="-156.4" font-family="Times New Roman,serif" font-size="14.00">+ createAccount(username: String, passwordHash: String)</text>
<text text-anchor="start" x="1023" y="-132.4" font-family="Times New Roman,serif" font-size="14.00">+ getHighscore(username: String): double</text>
<text text-anchor="start" x="1022.72" y="-108.4" font-family="Times New Roman,serif" font-size="14.00">+ passwordCheck(username: String, passwordHash: String): boolean</text>
<text text-anchor="start" x="1023" y="-84.4" font-family="Times New Roman,serif" font-size="14.00">+ saveHighscore(username: String, highscore: int)</text>
<polygon fill="black" stroke="black" points="1018,-221 1018,-221 1414,-221 1414,-221 1018,-221"/>
<polygon fill="black" stroke="black" points="1018,-197 1018,-197 1414,-197 1414,-197 1018,-197"/>
<polygon fill="none" stroke="black" points="1018,-76 1018,-246 1414,-246 1414,-76 1018,-76"/>
</g>
<!-- ServerErgebnis533556033 -->
<g id="node7" class="node">
<title>ServerErgebnis533556033</title>
<polygon fill="#ffffff" stroke="transparent" points="999.5,-210 544.5,-210 544.5,-112 999.5,-112 999.5,-210"/>
<text text-anchor="start" x="550" y="-192.4" font-family="Times New Roman,serif" font-size="14.00">(C)ServerErgebnis</text>
<text text-anchor="start" x="550" y="-168.4" font-family="Times New Roman,serif" font-size="14.00">&#45; &#160;&#160;serverHead: ServerHead [0..1]</text>
<text text-anchor="start" x="549.65" y="-144.4" font-family="Times New Roman,serif" font-size="14.00">+ nachrichtenVerwaltung(pClientIP: String, pClientPort: int, pMessage: String)</text>
<text text-anchor="start" x="550" y="-120.4" font-family="Times New Roman,serif" font-size="14.00">+ updateScoreList()</text>
<polygon fill="black" stroke="black" points="545,-185 545,-185 1000,-185 1000,-185 545,-185"/>
<polygon fill="black" stroke="black" points="545,-161 545,-161 1000,-161 1000,-161 545,-161"/>
<polygon fill="none" stroke="black" points="544.5,-112 544.5,-210 999.5,-210 999.5,-112 544.5,-112"/>
</g>
<!-- ServerErgebnis533556033&#45;&gt;ServerHead533556033 -->
<g id="edge6" class="edge">
<title>ServerErgebnis533556033&#45;&gt;ServerHead533556033</title>
<path fill="none" stroke="black" d="M836.45,-210.08C906.63,-262.43 1009,-338.8 1009,-338.8 1009,-338.8 1252.39,-406.05 1441.3,-458.25"/>
<polygon fill="black" stroke="black" points="1440.53,-461.67 1451.1,-460.96 1442.39,-454.92 1440.53,-461.67"/>
<text text-anchor="middle" x="1180.87" y="-367.8" font-family="Times New Roman,serif" font-size="14.00">serverHead</text>
<text text-anchor="middle" x="1180.87" y="-351" font-family="Times New Roman,serif" font-size="14.00">[0..1]</text>
</g>
<!-- ServerHead533556033&#45;&gt;List2036697502 -->
<g id="edge7" class="edge">
<title>ServerHead533556033&#45;&gt;List2036697502</title>
<path fill="none" stroke="black" d="M1866.51,-477.76C2137.02,-424.78 2576,-338.8 2576,-338.8 2576,-338.8 2583.43,-329.21 2594.82,-314.51"/>
<polygon fill="black" stroke="black" points="2597.77,-316.42 2601.13,-306.37 2592.24,-312.13 2597.77,-316.42"/>
<text text-anchor="middle" x="2545.66" y="-367.8" font-family="Times New Roman,serif" font-size="14.00">spieler</text>
<text text-anchor="middle" x="2545.66" y="-351" font-family="Times New Roman,serif" font-size="14.00">[0..1]</text>
</g>
<!-- ServerHead533556033&#45;&gt;SQLiteConnector533556033 -->
<g id="edge8" class="edge">
<title>ServerHead533556033&#45;&gt;SQLiteConnector533556033</title>
<path fill="none" stroke="black" d="M1501.93,-398.35C1458.97,-365.52 1424,-338.8 1424,-338.8 1424,-338.8 1373.97,-296.27 1322.98,-252.93"/>
<polygon fill="black" stroke="black" points="1325.01,-250.07 1315.13,-246.26 1320.48,-255.4 1325.01,-250.07"/>
<text text-anchor="middle" x="1501.6" y="-367.8" font-family="Times New Roman,serif" font-size="14.00">connector</text>
<text text-anchor="middle" x="1501.6" y="-351" font-family="Times New Roman,serif" font-size="14.00">[0..1]</text>
</g>
<!-- ServerHead533556033&#45;&gt;ServerErgebnis533556033 -->
<g id="edge9" class="edge">
<title>ServerHead533556033&#45;&gt;ServerErgebnis533556033</title>
<path fill="none" stroke="black" d="M1451.48,-475.49C1255.56,-434.98 991.58,-380.4 991.58,-380.4 991.58,-380.4 892.88,-282.23 827.82,-217.52"/>
<polygon fill="black" stroke="black" points="830.02,-214.77 820.46,-210.2 825.08,-219.73 830.02,-214.77"/>
<text text-anchor="middle" x="1014.71" y="-367.8" font-family="Times New Roman,serif" font-size="14.00">ergebnis</text>
<text text-anchor="middle" x="1014.71" y="-351" font-family="Times New Roman,serif" font-size="14.00">[0..1]</text>
</g>
<!-- ServerLobby533556033 -->
<g id="node9" class="node">
<title>ServerLobby533556033</title>
<polygon fill="#ffffff" stroke="transparent" points="1887.5,-246 1432.5,-246 1432.5,-76 1887.5,-76 1887.5,-246"/>
<text text-anchor="start" x="1438" y="-228.4" font-family="Times New Roman,serif" font-size="14.00">(C)ServerLobby</text>
<text text-anchor="start" x="1438" y="-204.4" font-family="Times New Roman,serif" font-size="14.00">&#45; &#160;&#160;serverHead: ServerHead [0..1]</text>
<text text-anchor="start" x="1438" y="-180.4" font-family="Times New Roman,serif" font-size="14.00">+ addPlayerToLobby(spieler: Spieler)</text>
<text text-anchor="start" x="1438" y="-156.4" font-family="Times New Roman,serif" font-size="14.00">+ checkIfLobbyReady()</text>
<text text-anchor="start" x="1437.65" y="-132.4" font-family="Times New Roman,serif" font-size="14.00">+ nachrichtenVerwaltung(pClientIP: String, pClientPort: int, pMessage: String)</text>
<text text-anchor="start" x="1438" y="-108.4" font-family="Times New Roman,serif" font-size="14.00">+ removePlayerFromLobby()</text>
<text text-anchor="start" x="1438" y="-84.4" font-family="Times New Roman,serif" font-size="14.00">+ sendAllLobbyMembers()</text>
<polygon fill="black" stroke="black" points="1433,-221 1433,-221 1888,-221 1888,-221 1433,-221"/>
<polygon fill="black" stroke="black" points="1433,-197 1433,-197 1888,-197 1888,-197 1433,-197"/>
<polygon fill="none" stroke="black" points="1432.5,-76 1432.5,-246 1887.5,-246 1887.5,-76 1432.5,-76"/>
</g>
<!-- ServerHead533556033&#45;&gt;ServerLobby533556033 -->
<g id="edge10" class="edge">
<title>ServerHead533556033&#45;&gt;ServerLobby533556033</title>
<path fill="none" stroke="black" d="M1636.44,-398.16C1634.42,-387.36 1633.11,-380.4 1633.11,-380.4 1633.11,-380.4 1633.11,-346.8 1633.11,-346.8 1633.11,-346.8 1639.67,-301.7 1646.31,-256.06"/>
<polygon fill="black" stroke="black" points="1649.8,-256.42 1647.77,-246.02 1642.87,-255.41 1649.8,-256.42"/>
<text text-anchor="middle" x="1648.95" y="-367.8" font-family="Times New Roman,serif" font-size="14.00">lobby</text>
<text text-anchor="middle" x="1648.95" y="-351" font-family="Times New Roman,serif" font-size="14.00">[0..1]</text>
</g>
<!-- ServerLogin533556033 -->
<g id="node10" class="node">
<title>ServerLogin533556033</title>
<polygon fill="#ffffff" stroke="transparent" points="2563.5,-198 2108.5,-198 2108.5,-124 2563.5,-124 2563.5,-198"/>
<text text-anchor="start" x="2114" y="-180.4" font-family="Times New Roman,serif" font-size="14.00">(C)ServerLogin</text>
<text text-anchor="start" x="2114" y="-156.4" font-family="Times New Roman,serif" font-size="14.00">&#45; &#160;&#160;serverHead: ServerHead [0..1]</text>
<text text-anchor="start" x="2113.65" y="-132.4" font-family="Times New Roman,serif" font-size="14.00">+ nachrichtenVerwaltung(pClientIP: String, pClientPort: int, pMessage: String)</text>
<polygon fill="black" stroke="black" points="2109,-173 2109,-173 2564,-173 2564,-173 2109,-173"/>
<polygon fill="black" stroke="black" points="2109,-149 2109,-149 2564,-149 2564,-149 2109,-149"/>
<polygon fill="none" stroke="black" points="2108.5,-124 2108.5,-198 2563.5,-198 2563.5,-124 2108.5,-124"/>
</g>
<!-- ServerHead533556033&#45;&gt;ServerLogin533556033 -->
<g id="edge11" class="edge">
<title>ServerHead533556033&#45;&gt;ServerLogin533556033</title>
<path fill="none" stroke="black" d="M1866.76,-433.6C1980.68,-387.09 2099,-338.8 2099,-338.8 2099,-338.8 2209,-256.74 2279.12,-204.43"/>
<polygon fill="black" stroke="black" points="2281.55,-206.99 2287.47,-198.2 2277.36,-201.38 2281.55,-206.99"/>
<text text-anchor="middle" x="2090.16" y="-367.8" font-family="Times New Roman,serif" font-size="14.00">login</text>
<text text-anchor="middle" x="2090.16" y="-351" font-family="Times New Roman,serif" font-size="14.00">[0..1]</text>
</g>
<!-- Spieler533556033 -->
<g id="node11" class="node">
<title>Spieler533556033</title>
<polygon fill="#ffffff" stroke="transparent" points="2090,-258 1906,-258 1906,-64 2090,-64 2090,-258"/>
<text text-anchor="start" x="1911" y="-240.4" font-family="Times New Roman,serif" font-size="14.00">(C)Spieler</text>
<text text-anchor="start" x="1911" y="-216.4" font-family="Times New Roman,serif" font-size="14.00">&#45; &#160;&#160;highscore: double [1]</text>
<text text-anchor="start" x="1911" y="-192.4" font-family="Times New Roman,serif" font-size="14.00">&#45; &#160;&#160;ipAdresse: String [0..1]</text>
<text text-anchor="start" x="1910.71" y="-168.4" font-family="Times New Roman,serif" font-size="14.00">&#45; &#160;&#160;joinedLobby: Boolean [0..1]</text>
<text text-anchor="start" x="1911" y="-144.4" font-family="Times New Roman,serif" font-size="14.00">&#45; &#160;&#160;nickName: String [0..1]</text>
<text text-anchor="start" x="1911" y="-120.4" font-family="Times New Roman,serif" font-size="14.00">&#45; &#160;&#160;port: int [1]</text>
<text text-anchor="start" x="1911" y="-96.4" font-family="Times New Roman,serif" font-size="14.00">&#45; &#160;&#160;readyStatus: Boolean [0..1]</text>
<text text-anchor="start" x="1911" y="-72.4" font-family="Times New Roman,serif" font-size="14.00">&#45; &#160;&#160;score: double [1]</text>
<polygon fill="black" stroke="black" points="1906,-233 1906,-233 2090,-233 2090,-233 1906,-233"/>
<polygon fill="none" stroke="black" points="1906,-64 1906,-258 2090,-258 2090,-64 1906,-64"/>
</g>
<!-- ServerHead533556033&#45;&gt;Spieler533556033 -->
<g id="edge12" class="edge">
<title>ServerHead533556033&#45;&gt;Spieler533556033</title>
<path fill="none" stroke="black" d="M1818.08,-398.35C1861.59,-365.52 1897,-338.8 1897,-338.8 1897,-338.8 1916.34,-304.94 1938.1,-266.86"/>
<polygon fill="black" stroke="black" points="1941.15,-268.58 1943.07,-258.16 1935.07,-265.11 1941.15,-268.58"/>
<text text-anchor="middle" x="1902.66" y="-367.8" font-family="Times New Roman,serif" font-size="14.00">spieler</text>
<text text-anchor="middle" x="1902.66" y="-351" font-family="Times New Roman,serif" font-size="14.00">[0..1]</text>
</g>
<!-- ServerLobby533556033&#45;&gt;ServerHead533556033 -->
<g id="edge13" class="edge">
<title>ServerLobby533556033&#45;&gt;ServerHead533556033</title>
<path fill="none" stroke="black" d="M1662.27,-246.02C1663.59,-294.84 1665,-346.8 1665,-346.8 1665,-346.8 1665,-380.4 1665,-380.4 1665,-380.4 1664.88,-383.26 1664.66,-388.15"/>
<polygon fill="black" stroke="black" points="1661.17,-388.02 1664.23,-398.16 1668.16,-388.32 1661.17,-388.02"/>
<text text-anchor="middle" x="1696.87" y="-367.8" font-family="Times New Roman,serif" font-size="14.00">serverHead</text>
<text text-anchor="middle" x="1696.87" y="-351" font-family="Times New Roman,serif" font-size="14.00">[0..1]</text>
</g>
<!-- ServerLogin533556033&#45;&gt;ServerHead533556033 -->
<g id="edge14" class="edge">
<title>ServerLogin533556033&#45;&gt;ServerHead533556033</title>
<path fill="none" stroke="black" d="M2298.52,-198.06C2234.04,-260.1 2109,-380.4 2109,-380.4 2109,-380.4 1991.27,-416.51 1876.24,-451.78"/>
<polygon fill="black" stroke="black" points="1875.08,-448.47 1866.55,-454.75 1877.13,-455.17 1875.08,-448.47"/>
<text text-anchor="middle" x="2172.87" y="-367.8" font-family="Times New Roman,serif" font-size="14.00">serverHead</text>
<text text-anchor="middle" x="2172.87" y="-351" font-family="Times New Roman,serif" font-size="14.00">[0..1]</text>
</g>
</g>
</svg>
